<?xml version="1.0" encoding="UTF-8" standalone="no"?>
<!DOCTYPE svg PUBLIC "-//W3C//DTD SVG 1.1//EN"
 "http://www.w3.org/Graphics/SVG/1.1/DTD/svg11.dtd">
<!-- Generated by graphviz version 11.0.0 (20240519.1550)
 -->
<!-- Title: snakemake_dag Pages: 1 -->
<svg width="761pt" height="548pt"
 viewBox="0.00 0.00 761.25 548.00" xmlns="http://www.w3.org/2000/svg" xmlns:xlink="http://www.w3.org/1999/xlink">
<g id="graph0" class="graph" transform="scale(1 1) rotate(0) translate(4 544)">
<title>snakemake_dag</title>
<polygon fill="white" stroke="none" points="-4,4 -4,-544 757.25,-544 757.25,4 -4,4"/>
<!-- 0 -->
<g id="node1" class="node">
<title>0</title>
<path fill="none" stroke="#d89556" stroke-width="2" d="M388.25,-36C388.25,-36 358.25,-36 358.25,-36 352.25,-36 346.25,-30 346.25,-24 346.25,-24 346.25,-12 346.25,-12 346.25,-6 352.25,0 358.25,0 358.25,0 388.25,0 388.25,0 394.25,0 400.25,-6 400.25,-12 400.25,-12 400.25,-24 400.25,-24 400.25,-30 394.25,-36 388.25,-36"/>
<text text-anchor="middle" x="373.25" y="-14.88" font-family="sans" font-size="10.00">all</text>
</g>
<!-- 1 -->
<g id="node2" class="node">
<title>1</title>
<path fill="none" stroke="#d6d856" stroke-width="2" d="M408.62,-180C408.62,-180 337.88,-180 337.88,-180 331.88,-180 325.88,-174 325.88,-168 325.88,-168 325.88,-156 325.88,-156 325.88,-150 331.88,-144 337.88,-144 337.88,-144 408.62,-144 408.62,-144 414.62,-144 420.62,-150 420.62,-156 420.62,-156 420.62,-168 420.62,-168 420.62,-174 414.62,-180 408.62,-180"/>
<text text-anchor="middle" x="373.25" y="-158.88" font-family="sans" font-size="10.00">scaffold_contigs</text>
</g>
<!-- 1&#45;&gt;0 -->
<g id="edge1" class="edge">
<title>1&#45;&gt;0</title>
<path fill="none" stroke="grey" stroke-width="2" d="M366.86,-143.11C363.57,-132.96 359.91,-119.93 358.25,-108 356.05,-92.15 356.05,-87.85 358.25,-72 359.29,-64.54 361.1,-56.66 363.12,-49.31"/>
<polygon fill="grey" stroke="grey" stroke-width="2" points="366.46,-50.37 365.98,-39.79 359.76,-48.36 366.46,-50.37"/>
</g>
<!-- 13 -->
<g id="node14" class="node">
<title>13</title>
<path fill="none" stroke="#569ad8" stroke-width="2" d="M439.75,-108C439.75,-108 378.75,-108 378.75,-108 372.75,-108 366.75,-102 366.75,-96 366.75,-96 366.75,-84 366.75,-84 366.75,-78 372.75,-72 378.75,-72 378.75,-72 439.75,-72 439.75,-72 445.75,-72 451.75,-78 451.75,-84 451.75,-84 451.75,-96 451.75,-96 451.75,-102 445.75,-108 439.75,-108"/>
<text text-anchor="middle" x="409.25" y="-86.88" font-family="sans" font-size="10.00">plot_coverage</text>
</g>
<!-- 1&#45;&gt;13 -->
<g id="edge14" class="edge">
<title>1&#45;&gt;13</title>
<path fill="none" stroke="grey" stroke-width="2" d="M382.33,-143.34C385.93,-136.34 390.16,-128.12 394.19,-120.28"/>
<polygon fill="grey" stroke="grey" stroke-width="2" points="397.2,-122.09 398.66,-111.59 390.97,-118.89 397.2,-122.09"/>
</g>
<!-- 2 -->
<g id="node3" class="node">
<title>2</title>
<path fill="none" stroke="#97d856" stroke-width="2" d="M401.5,-252C401.5,-252 345,-252 345,-252 339,-252 333,-246 333,-240 333,-240 333,-228 333,-228 333,-222 339,-216 345,-216 345,-216 401.5,-216 401.5,-216 407.5,-216 413.5,-222 413.5,-228 413.5,-228 413.5,-240 413.5,-240 413.5,-246 407.5,-252 401.5,-252"/>
<text text-anchor="middle" x="373.25" y="-230.88" font-family="sans" font-size="10.00">extract_fasta</text>
</g>
<!-- 2&#45;&gt;1 -->
<g id="edge3" class="edge">
<title>2&#45;&gt;1</title>
<path fill="none" stroke="grey" stroke-width="2" d="M373.25,-215.34C373.25,-208.75 373.25,-201.08 373.25,-193.67"/>
<polygon fill="grey" stroke="grey" stroke-width="2" points="376.75,-193.93 373.25,-183.93 369.75,-193.93 376.75,-193.93"/>
</g>
<!-- 3 -->
<g id="node4" class="node">
<title>3</title>
<path fill="none" stroke="#56d89a" stroke-width="2" d="M413.12,-324C413.12,-324 333.38,-324 333.38,-324 327.38,-324 321.38,-318 321.38,-312 321.38,-312 321.38,-300 321.38,-300 321.38,-294 327.38,-288 333.38,-288 333.38,-288 413.12,-288 413.12,-288 419.12,-288 425.12,-294 425.12,-300 425.12,-300 425.12,-312 425.12,-312 425.12,-318 419.12,-324 413.12,-324"/>
<text text-anchor="middle" x="373.25" y="-302.88" font-family="sans" font-size="10.00">assemble_contigs</text>
</g>
<!-- 3&#45;&gt;2 -->
<g id="edge4" class="edge">
<title>3&#45;&gt;2</title>
<path fill="none" stroke="grey" stroke-width="2" d="M373.25,-287.34C373.25,-280.75 373.25,-273.08 373.25,-265.67"/>
<polygon fill="grey" stroke="grey" stroke-width="2" points="376.75,-265.93 373.25,-255.93 369.75,-265.93 376.75,-265.93"/>
</g>
<!-- 4 -->
<g id="node5" class="node">
<title>4</title>
<path fill="none" stroke="#59d856" stroke-width="2" d="M263.75,-396C263.75,-396 208.75,-396 208.75,-396 202.75,-396 196.75,-390 196.75,-384 196.75,-384 196.75,-372 196.75,-372 196.75,-366 202.75,-360 208.75,-360 208.75,-360 263.75,-360 263.75,-360 269.75,-360 275.75,-366 275.75,-372 275.75,-372 275.75,-384 275.75,-384 275.75,-390 269.75,-396 263.75,-396"/>
<text text-anchor="middle" x="236.25" y="-374.88" font-family="sans" font-size="10.00">trim_adapter</text>
</g>
<!-- 4&#45;&gt;3 -->
<g id="edge5" class="edge">
<title>4&#45;&gt;3</title>
<path fill="none" stroke="grey" stroke-width="2" d="M271.18,-359.15C288.08,-350.52 308.62,-340.02 326.82,-330.72"/>
<polygon fill="grey" stroke="grey" stroke-width="2" points="328.38,-333.86 335.69,-326.19 325.2,-327.62 328.38,-333.86"/>
</g>
<!-- 5 -->
<g id="node6" class="node">
<title>5</title>
<path fill="none" stroke="#d85656" stroke-width="2" d="M224.88,-468C224.88,-468 167.62,-468 167.62,-468 161.62,-468 155.62,-462 155.62,-456 155.62,-456 155.62,-444 155.62,-444 155.62,-438 161.62,-432 167.62,-432 167.62,-432 224.88,-432 224.88,-432 230.88,-432 236.88,-438 236.88,-444 236.88,-444 236.88,-456 236.88,-456 236.88,-462 230.88,-468 224.88,-468"/>
<text text-anchor="middle" x="196.25" y="-446.88" font-family="sans" font-size="10.00">filter_adapter</text>
</g>
<!-- 5&#45;&gt;4 -->
<g id="edge8" class="edge">
<title>5&#45;&gt;4</title>
<path fill="none" stroke="grey" stroke-width="2" d="M206.34,-431.34C210.39,-424.26 215.15,-415.92 219.68,-408"/>
<polygon fill="grey" stroke="grey" stroke-width="2" points="222.6,-409.95 224.52,-399.53 216.52,-406.48 222.6,-409.95"/>
</g>
<!-- 6 -->
<g id="node7" class="node">
<title>6</title>
<path fill="none" stroke="#56d8d8" stroke-width="2" d="M224.5,-540C224.5,-540 12,-540 12,-540 6,-540 0,-534 0,-528 0,-528 0,-516 0,-516 0,-510 6,-504 12,-504 12,-504 224.5,-504 224.5,-504 230.5,-504 236.5,-510 236.5,-516 236.5,-516 236.5,-528 236.5,-528 236.5,-534 230.5,-540 224.5,-540"/>
<text text-anchor="middle" x="118.25" y="-525.25" font-family="sans" font-size="10.00">bam_to_fastq</text>
<text text-anchor="middle" x="118.25" y="-512.5" font-family="sans" font-size="10.00">sample: m64310e_220108_000406.hifi_reads</text>
</g>
<!-- 6&#45;&gt;5 -->
<g id="edge9" class="edge">
<title>6&#45;&gt;5</title>
<path fill="none" stroke="grey" stroke-width="2" d="M137.93,-503.34C146.64,-495.52 157.07,-486.16 166.68,-477.53"/>
<polygon fill="grey" stroke="grey" stroke-width="2" points="168.94,-480.21 174.05,-470.92 164.27,-475 168.94,-480.21"/>
</g>
<!-- 7 -->
<g id="node8" class="node">
<title>7</title>
<path fill="none" stroke="#59d856" stroke-width="2" d="M400.75,-396C400.75,-396 345.75,-396 345.75,-396 339.75,-396 333.75,-390 333.75,-384 333.75,-384 333.75,-372 333.75,-372 333.75,-366 339.75,-360 345.75,-360 345.75,-360 400.75,-360 400.75,-360 406.75,-360 412.75,-366 412.75,-372 412.75,-372 412.75,-384 412.75,-384 412.75,-390 406.75,-396 400.75,-396"/>
<text text-anchor="middle" x="373.25" y="-374.88" font-family="sans" font-size="10.00">trim_adapter</text>
</g>
<!-- 7&#45;&gt;3 -->
<g id="edge6" class="edge">
<title>7&#45;&gt;3</title>
<path fill="none" stroke="grey" stroke-width="2" d="M373.25,-359.34C373.25,-352.75 373.25,-345.08 373.25,-337.67"/>
<polygon fill="grey" stroke="grey" stroke-width="2" points="376.75,-337.93 373.25,-327.93 369.75,-337.93 376.75,-337.93"/>
</g>
<!-- 8 -->
<g id="node9" class="node">
<title>8</title>
<path fill="none" stroke="#d85656" stroke-width="2" d="M401.88,-468C401.88,-468 344.62,-468 344.62,-468 338.62,-468 332.62,-462 332.62,-456 332.62,-456 332.62,-444 332.62,-444 332.62,-438 338.62,-432 344.62,-432 344.62,-432 401.88,-432 401.88,-432 407.88,-432 413.88,-438 413.88,-444 413.88,-444 413.88,-456 413.88,-456 413.88,-462 407.88,-468 401.88,-468"/>
<text text-anchor="middle" x="373.25" y="-446.88" font-family="sans" font-size="10.00">filter_adapter</text>
</g>
<!-- 8&#45;&gt;7 -->
<g id="edge10" class="edge">
<title>8&#45;&gt;7</title>
<path fill="none" stroke="grey" stroke-width="2" d="M373.25,-431.34C373.25,-424.75 373.25,-417.08 373.25,-409.67"/>
<polygon fill="grey" stroke="grey" stroke-width="2" points="376.75,-409.93 373.25,-399.93 369.75,-409.93 376.75,-409.93"/>
</g>
<!-- 9 -->
<g id="node10" class="node">
<title>9</title>
<path fill="none" stroke="#56d8d8" stroke-width="2" d="M479.5,-540C479.5,-540 267,-540 267,-540 261,-540 255,-534 255,-528 255,-528 255,-516 255,-516 255,-510 261,-504 267,-504 267,-504 479.5,-504 479.5,-504 485.5,-504 491.5,-510 491.5,-516 491.5,-516 491.5,-528 491.5,-528 491.5,-534 485.5,-540 479.5,-540"/>
<text text-anchor="middle" x="373.25" y="-525.25" font-family="sans" font-size="10.00">bam_to_fastq</text>
<text text-anchor="middle" x="373.25" y="-512.5" font-family="sans" font-size="10.00">sample: m64310e_220103_200622.hifi_reads</text>
</g>
<!-- 9&#45;&gt;8 -->
<g id="edge11" class="edge">
<title>9&#45;&gt;8</title>
<path fill="none" stroke="grey" stroke-width="2" d="M373.25,-503.34C373.25,-496.75 373.25,-489.08 373.25,-481.67"/>
<polygon fill="grey" stroke="grey" stroke-width="2" points="376.75,-481.93 373.25,-471.93 369.75,-481.93 376.75,-481.93"/>
</g>
<!-- 10 -->
<g id="node11" class="node">
<title>10</title>
<path fill="none" stroke="#59d856" stroke-width="2" d="M537.75,-396C537.75,-396 482.75,-396 482.75,-396 476.75,-396 470.75,-390 470.75,-384 470.75,-384 470.75,-372 470.75,-372 470.75,-366 476.75,-360 482.75,-360 482.75,-360 537.75,-360 537.75,-360 543.75,-360 549.75,-366 549.75,-372 549.75,-372 549.75,-384 549.75,-384 549.75,-390 543.75,-396 537.75,-396"/>
<text text-anchor="middle" x="510.25" y="-374.88" font-family="sans" font-size="10.00">trim_adapter</text>
</g>
<!-- 10&#45;&gt;3 -->
<g id="edge7" class="edge">
<title>10&#45;&gt;3</title>
<path fill="none" stroke="grey" stroke-width="2" d="M475.32,-359.15C458.42,-350.52 437.88,-340.02 419.68,-330.72"/>
<polygon fill="grey" stroke="grey" stroke-width="2" points="421.3,-327.62 410.81,-326.19 418.12,-333.86 421.3,-327.62"/>
</g>
<!-- 11 -->
<g id="node12" class="node">
<title>11</title>
<path fill="none" stroke="#d85656" stroke-width="2" d="M579.88,-468C579.88,-468 522.62,-468 522.62,-468 516.62,-468 510.62,-462 510.62,-456 510.62,-456 510.62,-444 510.62,-444 510.62,-438 516.62,-432 522.62,-432 522.62,-432 579.88,-432 579.88,-432 585.88,-432 591.88,-438 591.88,-444 591.88,-444 591.88,-456 591.88,-456 591.88,-462 585.88,-468 579.88,-468"/>
<text text-anchor="middle" x="551.25" y="-446.88" font-family="sans" font-size="10.00">filter_adapter</text>
</g>
<!-- 11&#45;&gt;10 -->
<g id="edge12" class="edge">
<title>11&#45;&gt;10</title>
<path fill="none" stroke="grey" stroke-width="2" d="M540.9,-431.34C536.76,-424.26 531.88,-415.92 527.24,-408"/>
<polygon fill="grey" stroke="grey" stroke-width="2" points="530.34,-406.37 522.27,-399.51 524.3,-409.91 530.34,-406.37"/>
</g>
<!-- 12 -->
<g id="node13" class="node">
<title>12</title>
<path fill="none" stroke="#56d8d8" stroke-width="2" d="M741.25,-540C741.25,-540 521.25,-540 521.25,-540 515.25,-540 509.25,-534 509.25,-528 509.25,-528 509.25,-516 509.25,-516 509.25,-510 515.25,-504 521.25,-504 521.25,-504 741.25,-504 741.25,-504 747.25,-504 753.25,-510 753.25,-516 753.25,-516 753.25,-528 753.25,-528 753.25,-534 747.25,-540 741.25,-540"/>
<text text-anchor="middle" x="631.25" y="-525.25" font-family="sans" font-size="10.00">bam_to_fastq</text>
<text text-anchor="middle" x="631.25" y="-512.5" font-family="sans" font-size="10.00">sample: m54334Ue_211226_153416.hifi_reads</text>
</g>
<!-- 12&#45;&gt;11 -->
<g id="edge13" class="edge">
<title>12&#45;&gt;11</title>
<path fill="none" stroke="grey" stroke-width="2" d="M611.06,-503.34C602.04,-495.44 591.21,-485.96 581.26,-477.26"/>
<polygon fill="grey" stroke="grey" stroke-width="2" points="583.82,-474.85 573.99,-470.9 579.21,-480.11 583.82,-474.85"/>
</g>
<!-- 13&#45;&gt;0 -->
<g id="edge2" class="edge">
<title>13&#45;&gt;0</title>
<path fill="none" stroke="grey" stroke-width="2" d="M400.17,-71.34C396.57,-64.34 392.34,-56.12 388.31,-48.28"/>
<polygon fill="grey" stroke="grey" stroke-width="2" points="391.53,-46.89 383.84,-39.59 385.3,-50.09 391.53,-46.89"/>
</g>
</g>
</svg>
